<svg width="36" height="36" viewBox="0 0 36 36" fill="none" xmlns="http://www.w3.org/2000/svg">
<path d="M2.81782 26.8174C1.51458 28.6169 0.579213 30.6558 0.0653218 32.8174C-0.032841 33.2478 -0.0201925 33.696 0.102083 34.1201C0.224358 34.5442 0.452262 34.9304 0.764455 35.2424C1.07665 35.5545 1.46292 35.7822 1.88711 35.9043C2.31129 36.0263 2.75952 36.0388 3.18982 35.9404C5.34809 35.4257 7.38384 34.4909 9.18082 33.1894C10.0258 32.3456 10.501 31.2007 10.5018 30.0066C10.5027 28.8125 10.0291 27.6669 9.18532 26.8219C8.34154 25.9769 7.19664 25.5018 6.0025 25.5009C4.80837 25.5001 3.6628 25.9736 2.81782 26.8174ZM7.05982 31.0609C5.85083 31.8352 4.53762 32.4333 3.15982 32.8369C3.56404 31.4593 4.16202 30.1462 4.93582 28.9369C5.21873 28.6637 5.59763 28.5125 5.99092 28.5159C6.38422 28.5193 6.76044 28.6771 7.03855 28.9552C7.31666 29.2333 7.47442 29.6095 7.47783 30.0028C7.48125 30.3961 7.33006 30.775 7.05682 31.0579L7.05982 31.0609ZM26.9993 12.7504C26.9993 13.745 26.6042 14.6988 25.901 15.4021C25.1977 16.1053 24.2439 16.5004 23.2493 16.5004C22.2548 16.5004 21.3009 16.1053 20.5977 15.4021C19.8944 14.6988 19.4993 13.745 19.4993 12.7504C19.4993 11.7558 19.8944 10.802 20.5977 10.0988C21.3009 9.3955 22.2548 9.00041 23.2493 9.00041C24.2439 9.00041 25.1977 9.3955 25.901 10.0988C26.6042 10.802 26.9993 11.7558 26.9993 12.7504ZM31.4573 0.000410514C27.8877 -0.0208094 24.3612 0.780901 21.1516 2.3433C17.942 3.90571 15.1356 6.18677 12.9503 9.00941C10.567 9.0918 8.22947 9.68681 6.09682 10.7539C3.62365 11.8928 1.60468 13.8293 0.363822 16.2529C0.072626 16.9291 -0.0455733 17.6671 0.0198973 18.4004C0.0853678 19.1336 0.332446 19.839 0.738822 20.4529C1.14908 21.0818 1.70975 21.5984 2.37006 21.956C3.03037 22.3135 3.76944 22.5006 4.52032 22.5004H8.24932C9.63964 22.5071 10.9711 23.0624 11.9542 24.0455C12.9373 25.0286 13.4926 26.3601 13.4993 27.7504V31.4794C13.4988 32.23 13.6855 32.9689 14.0425 33.6292C14.3995 34.2895 14.9155 34.8503 15.5438 35.2609C16.1577 35.6673 16.8631 35.9144 17.5964 35.9798C18.3296 36.0453 19.0677 35.9271 19.7438 35.6359C22.1674 34.395 24.104 32.3761 25.2428 29.9029C26.3099 27.7703 26.9049 25.4327 26.9873 23.0494C29.8145 20.8586 32.0983 18.0453 33.6613 14.8282C35.2243 11.6112 36.0244 8.07698 35.9993 4.50041C35.9976 3.90642 35.8786 3.31862 35.6492 2.77071C35.4198 2.2228 35.0845 1.72556 34.6625 1.3075C34.2405 0.889443 33.7402 0.558784 33.1902 0.334484C32.6402 0.110185 32.0513 -0.00334281 31.4573 0.000410514ZM6.51832 19.5004H4.52032C4.26667 19.5024 4.01666 19.4399 3.79368 19.319C3.57071 19.1981 3.38204 19.0226 3.24532 18.8089C3.11101 18.6105 3.02892 18.3813 3.00664 18.1427C2.98435 17.9042 3.02259 17.6638 3.11782 17.4439C4.08435 15.6726 5.60279 14.2653 7.44232 13.4359C8.39278 12.9594 9.39624 12.5968 10.4318 12.3559C8.94087 14.6304 7.63229 17.0194 6.51832 19.5004ZM22.5683 28.5574C21.739 30.3965 20.3323 31.9148 18.5618 32.8819C18.3417 32.9773 18.1011 33.0156 17.8622 32.9933C17.6234 32.971 17.394 32.8888 17.1953 32.7544C16.9817 32.6177 16.8062 32.429 16.6852 32.206C16.5643 31.9831 16.5019 31.7331 16.5038 31.4794V29.4814C18.9848 28.3674 21.3738 27.0589 23.6483 25.5679C23.406 26.6037 23.0419 27.6072 22.5638 28.5574H22.5683ZM22.7708 22.5274C20.741 23.9372 18.5982 25.1769 16.3643 26.2339C16.0593 24.596 15.2655 23.0889 14.0874 21.9108C12.9093 20.7327 11.4022 19.939 9.76432 19.6339C10.8221 17.402 12.0623 15.2612 13.4723 13.2334C18.5243 6.18641 23.7593 3.22091 31.4993 3.00041C31.89 3.00026 32.2653 3.15251 32.5454 3.4248C32.8255 3.69708 32.9884 4.06791 32.9993 4.45841C32.7788 12.2404 29.8133 17.4754 22.7663 22.5274H22.7708Z" fill="url(#paint0_linear_115_9)"/>
<defs>
<linearGradient id="paint0_linear_115_9" x1="25" y1="6.50293" x2="-17.5" y2="41.0029" gradientUnits="userSpaceOnUse">
<stop stop-color="#D70F0F"/>
<stop offset="1" stop-color="#560A0A"/>
</linearGradient>
</defs>
</svg>
