<svg width="36" height="36" viewBox="0 0 36 36" fill="none" xmlns="http://www.w3.org/2000/svg">
<g clip-path="url(#clip0_115_5)">
<path d="M16.8814 36.0001C16.39 35.9983 15.9048 35.8898 15.4594 35.6821C14.732 35.3581 14.1477 34.7798 13.8163 34.0557C13.4849 33.3316 13.4291 32.5114 13.6594 31.7491L16.0009 24.0001H10.4839C9.78105 24.0009 9.08773 23.8371 8.45955 23.5217C7.83137 23.2064 7.2858 22.7483 6.86656 22.1841C6.44733 21.6199 6.16608 20.9653 6.04537 20.2729C5.92466 19.5804 5.96784 18.8693 6.17144 18.1966L10.7074 3.19658C10.9839 2.26879 11.5539 1.45571 12.3317 0.87936C13.1096 0.303008 14.0534 -0.00552244 15.0214 7.4834e-05H20.5609C21.1906 0.000601548 21.8107 0.153564 22.3684 0.445889C22.926 0.738215 23.4046 1.16121 23.7632 1.67873C24.1219 2.19625 24.3499 2.7929 24.4277 3.4177C24.5056 4.0425 24.4311 4.67686 24.2104 5.26657L21.6859 12.0001H25.5214C26.339 12 27.1412 12.2227 27.8417 12.6442C28.5423 13.0657 29.1148 13.6701 29.4977 14.3924C29.8806 15.1148 30.0595 15.9278 30.0152 16.7442C29.9708 17.5606 29.7049 18.3495 29.2459 19.0261L19.6459 34.4761C19.3492 34.9409 18.9407 35.3239 18.4577 35.5901C17.9748 35.8563 17.4329 35.9973 16.8814 36.0001ZM15.0214 3.00008C14.6993 2.99976 14.3856 3.10316 14.1268 3.29496C13.868 3.48677 13.6779 3.75679 13.5844 4.06507L9.04844 19.0651C8.98053 19.2892 8.96604 19.5261 9.00612 19.7568C9.04621 19.9876 9.13976 20.2057 9.27929 20.3938C9.41882 20.5819 9.60045 20.7347 9.80964 20.8399C10.0188 20.9452 10.2498 21.0001 10.4839 21.0001H18.0214C18.2556 21.0001 18.4866 21.0549 18.6957 21.1602C18.9049 21.2655 19.0866 21.4183 19.2261 21.6064C19.3656 21.7944 19.4592 22.0126 19.4993 22.2433C19.5394 22.474 19.5249 22.711 19.4569 22.9351L16.5364 32.5981C16.5229 32.6336 16.517 32.6716 16.5189 32.7096C16.5209 32.7476 16.5307 32.7847 16.5477 32.8187C16.5648 32.8527 16.5887 32.8828 16.618 32.907C16.6473 32.9313 16.6814 32.9492 16.7179 32.9596C16.7511 32.9808 16.7883 32.9949 16.8273 33.0009C16.8662 33.0069 16.906 33.0046 16.944 32.9943C16.982 32.984 17.0174 32.9658 17.048 32.941C17.0786 32.9161 17.1036 32.8852 17.1214 32.8501L26.7214 17.4001C26.8893 17.1724 26.9894 16.9018 27.0101 16.6197C27.0308 16.3376 26.9713 16.0553 26.8384 15.8056C26.7153 15.5623 26.5269 15.3581 26.2943 15.2158C26.0617 15.0735 25.7941 14.9988 25.5214 15.0001H19.5214C19.279 15.0002 19.0401 14.9416 18.8253 14.8293C18.6105 14.7169 18.4261 14.5541 18.2879 14.3549C18.1498 14.1557 18.062 13.926 18.032 13.6854C18.002 13.4448 18.0308 13.2006 18.1159 12.9736L21.4009 4.21357C21.4514 4.07776 21.4683 3.93177 21.4503 3.788C21.4323 3.64424 21.3798 3.50696 21.2973 3.38783C21.2149 3.26869 21.1048 3.17123 20.9766 3.10372C20.8484 3.03622 20.7058 3.00066 20.5609 3.00008H15.0214Z" fill="url(#paint0_linear_115_5)"/>
</g>
<defs>
<linearGradient id="paint0_linear_115_5" x1="21" y1="12.5" x2="-5.19425e-07" y2="36" gradientUnits="userSpaceOnUse">
<stop stop-color="#D70F0F"/>
<stop offset="1" stop-color="#560A0A"/>
</linearGradient>
<clipPath id="clip0_115_5">
<rect width="36" height="36" rx="8" fill="white"/>
</clipPath>
</defs>
</svg>
