<svg width="36" height="36" viewBox="0 0 36 36" fill="none" xmlns="http://www.w3.org/2000/svg">
<g clip-path="url(#clip0_115_2)">
<path d="M34.9063 14.1284C32.5798 10.3394 27.2878 3.98242 17.9998 3.98242C8.71183 3.98242 3.41983 10.3394 1.09333 14.1284C0.374125 15.2917 -0.00683594 16.6323 -0.00683594 17.9999C-0.00683594 19.3676 0.374125 20.7082 1.09333 21.8714C3.41983 25.6604 8.71183 32.0174 17.9998 32.0174C27.2878 32.0174 32.5798 25.6604 34.9063 21.8714C35.6255 20.7082 36.0065 19.3676 36.0065 17.9999C36.0065 16.6323 35.6255 15.2917 34.9063 14.1284ZM32.3488 20.3009C30.3508 23.5499 25.8283 29.0174 17.9998 29.0174C10.1713 29.0174 5.64883 23.5499 3.65083 20.3009C3.22354 19.6095 2.99721 18.8127 2.99721 17.9999C2.99721 17.1871 3.22354 16.3904 3.65083 15.6989C5.64883 12.4499 10.1713 6.98242 17.9998 6.98242C25.8283 6.98242 30.3508 12.4439 32.3488 15.6989C32.7761 16.3904 33.0025 17.1871 33.0025 17.9999C33.0025 18.8127 32.7761 19.6095 32.3488 20.3009Z" fill="url(#paint0_linear_115_2)"/>
<path d="M18 10.5C16.5166 10.5 15.0666 10.9399 13.8332 11.764C12.5999 12.5881 11.6386 13.7594 11.0709 15.1299C10.5032 16.5003 10.3547 18.0083 10.6441 19.4632C10.9335 20.918 11.6478 22.2544 12.6967 23.3033C13.7456 24.3522 15.082 25.0665 16.5368 25.3559C17.9917 25.6453 19.4997 25.4968 20.8701 24.9291C22.2406 24.3614 23.4119 23.4001 24.236 22.1668C25.0601 20.9334 25.5 19.4834 25.5 18C25.4976 16.0116 24.7067 14.1053 23.3007 12.6993C21.8947 11.2933 19.9884 10.5024 18 10.5ZM18 22.5C17.11 22.5 16.24 22.2361 15.4999 21.7416C14.7599 21.2471 14.1831 20.5443 13.8425 19.7221C13.502 18.8998 13.4128 17.995 13.5865 17.1221C13.7601 16.2492 14.1887 15.4474 14.818 14.818C15.4474 14.1887 16.2492 13.7601 17.1221 13.5865C17.995 13.4128 18.8998 13.5019 19.7221 13.8425C20.5443 14.1831 21.2472 14.7599 21.7416 15.4999C22.2361 16.24 22.5 17.11 22.5 18C22.5 19.1935 22.0259 20.3381 21.182 21.182C20.3381 22.0259 19.1935 22.5 18 22.5Z" fill="url(#paint1_linear_115_2)"/>
</g>
<defs>
<linearGradient id="paint0_linear_115_2" x1="28.5" y1="4" x2="-9.69468e-07" y2="32" gradientUnits="userSpaceOnUse">
<stop offset="0.466346" stop-color="#D60F0F"/>
<stop offset="1" stop-color="#560A0A"/>
</linearGradient>
<linearGradient id="paint1_linear_115_2" x1="26" y1="8" x2="4.5" y2="28" gradientUnits="userSpaceOnUse">
<stop offset="0.466346" stop-color="#D60F0F"/>
<stop offset="1" stop-color="#560A0A"/>
</linearGradient>
<clipPath id="clip0_115_2">
<rect width="36" height="36" fill="white"/>
</clipPath>
</defs>
</svg>
