<svg width="148" height="34" viewBox="0 0 148 34" fill="none" xmlns="http://www.w3.org/2000/svg">
<path d="M22.592 17.336L22.176 22.616C21.7493 23.32 21.248 23.9707 20.672 24.568C20.096 25.144 19.4347 25.6453 18.688 26.072C17.9413 26.4987 17.1093 26.8293 16.192 27.064C15.2747 27.32 14.2613 27.448 13.152 27.448C11.488 27.448 9.952 27.1707 8.544 26.616C7.136 26.0613 5.92 25.272 4.896 24.248C3.89333 23.224 3.104 21.9973 2.528 20.568C1.97333 19.1387 1.696 17.5387 1.696 15.768C1.696 14.04 1.97333 12.4613 2.528 11.032C3.08267 9.60267 3.86133 8.376 4.864 7.352C5.86667 6.328 7.08267 5.53867 8.512 4.984C9.94133 4.42933 11.5413 4.152 13.312 4.152C14.8907 4.152 16.32 4.36533 17.6 4.792C18.88 5.21867 20.0107 5.752 20.992 6.392L21.664 11.224H20.896C20.4267 9.368 19.5093 7.97067 18.144 7.032C16.7787 6.09333 15.1787 5.624 13.344 5.624C12 5.624 10.784 5.86933 9.696 6.36C8.62933 6.82933 7.712 7.512 6.944 8.408C6.19733 9.28267 5.62133 10.3493 5.216 11.608C4.81067 12.8453 4.608 14.2213 4.608 15.736C4.608 17.2507 4.82133 18.6267 5.248 19.864C5.67467 21.1013 6.26133 22.168 7.008 23.064C7.776 23.9387 8.68267 24.632 9.728 25.144C10.7733 25.6347 11.9253 25.912 13.184 25.976C14.2507 25.976 15.264 25.8267 16.224 25.528C17.2053 25.2293 18.08 24.7493 18.848 24.088C19.616 23.4053 20.256 22.5093 20.768 21.4C21.3013 20.2907 21.664 18.936 21.856 17.336H22.592ZM52.1205 24.44C52.2272 24.9733 52.4725 25.4 52.8565 25.72C53.2405 26.0187 53.6778 26.168 54.1685 26.168H54.9365V27H47.6085V26.2H48.3765C48.6325 26.2 48.8565 26.104 49.0485 25.912C49.2405 25.6987 49.3365 25.464 49.3365 25.208V25.144L48.0245 10.392L41.8485 24.088C41.6778 24.4507 41.5285 24.824 41.4005 25.208C41.2725 25.5493 41.1445 25.9227 41.0165 26.328C40.9098 26.712 40.8352 27.0853 40.7925 27.448H40.1205L32.4405 10.84L31.1605 25.144V25.208C31.1605 25.464 31.2565 25.6987 31.4485 25.912C31.6405 26.104 31.8645 26.2 32.1205 26.2H32.8565V27H26.2645V26.168H27.0325C27.5232 26.168 27.9605 26.0187 28.3445 25.72C28.7285 25.4 28.9738 24.9733 29.0805 24.44L31.4485 4.152H32.1205L40.6645 22.648L49.0485 4.152H49.7205L52.1205 24.44Z" fill="url(#paint0_linear_129_78)"/>
<line x1="64.3596" y1="4" x2="64.3596" y2="30" stroke="black" stroke-opacity="0.1" stroke-width="0.719101"/>
<path d="M79.1076 7.95964L78.9767 9.62076C78.8425 9.84225 78.6848 10.047 78.5036 10.2349C78.3223 10.4161 78.1143 10.5738 77.8794 10.708C77.6445 10.8423 77.3827 10.9463 77.0941 11.0201C76.8055 11.1007 76.4867 11.1409 76.1377 11.1409C75.6142 11.1409 75.131 11.0537 74.688 10.8792C74.245 10.7047 73.8625 10.4564 73.5403 10.1342C73.2249 9.81204 72.9765 9.42613 72.7953 8.97645C72.6208 8.52677 72.5336 8.0234 72.5336 7.46634C72.5336 6.9227 72.6208 6.42604 72.7953 5.97636C72.9698 5.52668 73.2148 5.14076 73.5302 4.81861C73.8457 4.49645 74.2283 4.24812 74.6779 4.07362C75.1276 3.89912 75.631 3.81186 76.188 3.81186C76.6847 3.81186 77.1344 3.87898 77.5371 4.01321C77.9398 4.14745 78.2955 4.31524 78.6042 4.51658L78.8156 6.03676H78.574C78.4264 5.45285 78.1378 5.01324 77.7082 4.71793C77.2787 4.42262 76.7753 4.27497 76.1981 4.27497C75.7753 4.27497 75.3927 4.35215 75.0504 4.50652C74.7148 4.65417 74.4262 4.86894 74.1846 5.15083C73.9497 5.42601 73.7685 5.76159 73.641 6.15757C73.5135 6.54685 73.4497 6.97974 73.4497 7.45627C73.4497 7.93279 73.5168 8.36569 73.6511 8.75497C73.7853 9.14424 73.9699 9.47982 74.2048 9.76171C74.4464 10.0369 74.7316 10.255 75.0605 10.4161C75.3894 10.5705 75.7518 10.6577 76.1478 10.6778C76.4834 10.6778 76.8022 10.6309 77.1042 10.5369C77.4129 10.4429 77.6881 10.2919 77.9297 10.0839C78.1713 9.86909 78.3727 9.58721 78.5338 9.2382C78.7015 8.8892 78.8156 8.46301 78.876 7.95964H79.1076ZM83.847 4.81861C84.3168 4.81861 84.7564 4.89579 85.1658 5.05016C85.5752 5.20452 85.9343 5.42265 86.243 5.70454C86.5518 5.97971 86.7934 6.31194 86.9679 6.70121C87.1491 7.08378 87.2397 7.50996 87.2397 7.97978C87.2397 8.44959 87.1491 8.87913 86.9679 9.2684C86.7934 9.65097 86.5518 9.98319 86.243 10.2651C85.9343 10.5403 85.5752 10.755 85.1658 10.9094C84.7564 11.0638 84.3168 11.1409 83.847 11.1409C83.3772 11.1409 82.9342 11.0638 82.5181 10.9094C82.1087 10.755 81.7496 10.5403 81.4409 10.2651C81.1321 9.98319 80.8872 9.65097 80.706 9.2684C80.5315 8.87913 80.4442 8.44959 80.4442 7.97978C80.4442 7.50996 80.5315 7.08378 80.706 6.70121C80.8872 6.31194 81.1321 5.97971 81.4409 5.70454C81.7496 5.42265 82.1087 5.20452 82.5181 5.05016C82.9342 4.89579 83.3772 4.81861 83.847 4.81861ZM83.847 10.6778C84.196 10.6778 84.5215 10.6141 84.8235 10.4866C85.1256 10.3523 85.3873 10.1678 85.6088 9.93285C85.837 9.69795 86.0148 9.41606 86.1424 9.08719C86.2699 8.75161 86.3336 8.38247 86.3336 7.97978C86.3336 7.57708 86.2699 7.2113 86.1424 6.88243C86.0148 6.54685 85.837 6.2616 85.6088 6.0267C85.3873 5.79179 85.1256 5.61058 84.8235 5.48306C84.5215 5.34882 84.196 5.28171 83.847 5.28171C83.498 5.28171 83.1691 5.34882 82.8604 5.48306C82.5584 5.61058 82.2933 5.79179 82.0651 6.0267C81.8436 6.2616 81.6691 6.54685 81.5416 6.88243C81.414 7.2113 81.3503 7.57708 81.3503 7.97978C81.3503 8.38247 81.414 8.75161 81.5416 9.08719C81.6691 9.41606 81.8436 9.69795 82.0651 9.93285C82.2933 10.1678 82.5584 10.3523 82.8604 10.4866C83.1691 10.6141 83.498 10.6778 83.847 10.6778ZM95.5765 4.97968V5.24144H95.3349C95.2073 5.24144 95.0999 5.28171 95.0127 5.36225C94.9254 5.44279 94.8751 5.5401 94.8617 5.6542V9.82211C94.8617 9.97648 94.865 10.1342 94.8718 10.2953C94.8852 10.4496 94.8986 10.5906 94.912 10.7181C94.9254 10.8658 94.9422 11.0101 94.9624 11.151H94.7409L89.7575 6.42939V10.3154C89.7709 10.4362 89.8213 10.5403 89.9085 10.6275C89.9958 10.708 90.0998 10.7483 90.2206 10.7483H90.4723V11.0101H88.4588V10.7483H88.7105C88.8313 10.7483 88.9353 10.708 89.0226 10.6275C89.1165 10.5403 89.1669 10.4362 89.1736 10.3154V6.12737C89.1736 5.96629 89.1669 5.80857 89.1535 5.6542C89.14 5.49312 89.1266 5.35218 89.1132 5.23137C89.0931 5.09043 89.0729 4.95284 89.0528 4.81861H89.2944L94.2677 9.49995V5.63407C94.2543 5.51997 94.2039 5.42265 94.1167 5.34211C94.0294 5.26157 93.9254 5.2213 93.8046 5.2213H93.5529V4.95955L95.5765 4.97968ZM103.331 4.95955V5.2213H103.17C103.056 5.2213 102.935 5.26493 102.808 5.35218C102.687 5.43272 102.58 5.5636 102.486 5.74481L100.452 10.0839C100.385 10.2315 100.325 10.3691 100.271 10.4966C100.224 10.6107 100.18 10.7282 100.14 10.849C100.106 10.9698 100.086 11.0671 100.08 11.1409H99.8581L97.4117 5.74481C97.3178 5.5636 97.2104 5.43272 97.0896 5.35218C96.9688 5.26493 96.8513 5.2213 96.7372 5.2213H96.5761V4.95955H98.7507V5.2213H98.5896C98.5158 5.2213 98.4487 5.24815 98.3883 5.30184C98.3279 5.35553 98.2977 5.43607 98.2977 5.54346C98.2977 5.59715 98.3077 5.6542 98.3279 5.71461L98.3178 5.70454L99.9991 9.79191L101.711 5.72467C101.737 5.67098 101.751 5.61058 101.751 5.54346C101.751 5.44279 101.721 5.3656 101.66 5.31191C101.6 5.25151 101.533 5.2213 101.459 5.2213H101.298V4.95955H103.331ZM108.361 11.0503H104.243V10.7886H104.465C104.599 10.7886 104.71 10.745 104.797 10.6577C104.884 10.5705 104.931 10.4631 104.938 10.3356V5.6844C104.938 5.5636 104.891 5.46292 104.797 5.38238C104.71 5.29513 104.599 5.2515 104.465 5.2515H104.243V4.98975H107.193C107.287 4.98975 107.391 4.98304 107.505 4.96962C107.619 4.95619 107.73 4.93942 107.837 4.91928C107.952 4.89915 108.052 4.87901 108.14 4.85888C108.233 4.83203 108.307 4.80854 108.361 4.7884V6.10724H108.089V5.87569C108.089 5.76159 108.049 5.66427 107.968 5.58373C107.895 5.50319 107.797 5.45957 107.676 5.45285H105.733V7.76836H107.324C107.431 7.76165 107.512 7.72809 107.566 7.66768C107.619 7.60057 107.646 7.52339 107.646 7.43613V7.22472H107.918V8.76503H107.646V8.55362C107.646 8.46637 107.619 8.39254 107.566 8.33213C107.519 8.27173 107.445 8.23482 107.344 8.22139H105.743V10.5369H107.183C107.405 10.5302 107.593 10.5 107.747 10.4463C107.908 10.3859 108.046 10.3087 108.16 10.2147C108.274 10.1208 108.371 10.0067 108.452 9.87245C108.539 9.73822 108.616 9.59392 108.683 9.43955H108.965L108.361 11.0503ZM112.629 4.96962C113.259 4.98304 113.763 5.13741 114.139 5.43272C114.515 5.72132 114.702 6.12401 114.702 6.64081C114.702 6.84216 114.669 7.03344 114.602 7.21465C114.535 7.39586 114.437 7.5603 114.31 7.70795C114.189 7.85561 114.045 7.98313 113.877 8.09052C113.709 8.19119 113.525 8.26502 113.323 8.312C113.424 8.39254 113.528 8.49657 113.635 8.62409C113.743 8.7449 113.837 8.86235 113.917 8.97645V8.96638C114.004 9.0939 114.095 9.21807 114.189 9.33888C114.27 9.44626 114.36 9.56036 114.461 9.68117C114.561 9.80198 114.662 9.91943 114.763 10.0335C114.857 10.1409 114.947 10.2382 115.035 10.3255C115.122 10.4127 115.213 10.4899 115.306 10.557C115.4 10.6174 115.501 10.6644 115.609 10.698C115.723 10.7315 115.85 10.7483 115.991 10.7483V11.0101H115.609C115.327 11.0101 115.085 10.9832 114.884 10.9295C114.682 10.8691 114.508 10.7953 114.36 10.708C114.212 10.6208 114.088 10.5268 113.988 10.4262C113.894 10.3188 113.806 10.2181 113.726 10.1241C113.692 10.0906 113.625 9.99997 113.525 9.85231C113.424 9.69795 113.316 9.54358 113.202 9.38921L112.759 8.76503C112.639 8.61067 112.501 8.46972 112.347 8.3422C112.192 8.21468 111.934 8.15092 111.571 8.15092V10.2852C111.578 10.406 111.625 10.5101 111.712 10.5973C111.8 10.6846 111.91 10.7282 112.045 10.7282H112.266V10.9899H110.092V10.7282H110.313C110.447 10.7282 110.558 10.6879 110.645 10.6074C110.733 10.5201 110.78 10.4161 110.786 10.2953V5.6542C110.78 5.53339 110.733 5.43272 110.645 5.35218C110.558 5.27164 110.447 5.23137 110.313 5.23137H110.102V4.95955L112.629 4.96962ZM112.165 7.88917C112.239 7.88917 112.327 7.88917 112.427 7.88917C112.535 7.88246 112.655 7.87575 112.79 7.86903C112.924 7.85561 113.051 7.82541 113.172 7.77843C113.293 7.72473 113.404 7.64755 113.504 7.54688C113.605 7.43949 113.689 7.28848 113.756 7.09384C113.803 6.96632 113.827 6.81867 113.827 6.65088C113.827 6.61061 113.823 6.58376 113.817 6.57034C113.81 6.22804 113.699 5.95958 113.484 5.76494C113.27 5.57031 112.978 5.46292 112.608 5.44279C112.474 5.43607 112.343 5.43272 112.216 5.43272H111.571V7.88917H112.165ZM120.37 8.36234C120.531 8.49657 120.648 8.66772 120.722 8.87578C120.796 9.08384 120.836 9.28854 120.843 9.48989C120.843 9.71808 120.793 9.93285 120.692 10.1342C120.598 10.3356 120.467 10.5134 120.299 10.6678C120.138 10.8154 119.947 10.9329 119.726 11.0201C119.504 11.1074 119.269 11.151 119.021 11.151C118.873 11.151 118.716 11.1409 118.548 11.1208C118.38 11.1007 118.215 11.0705 118.054 11.0302C117.9 10.9899 117.752 10.9396 117.611 10.8792C117.471 10.8121 117.353 10.7349 117.259 10.6476C117.246 10.5939 117.236 10.5369 117.229 10.4765C117.222 10.4094 117.219 10.3389 117.219 10.2651C117.219 10.1241 117.232 9.96641 117.259 9.79191C117.286 9.61741 117.326 9.45297 117.38 9.29861H117.652C117.645 9.35901 117.638 9.40935 117.632 9.44962C117.632 9.48989 117.632 9.52345 117.632 9.55029C117.632 9.90601 117.746 10.1845 117.974 10.3859C118.202 10.5805 118.497 10.6778 118.86 10.6778H118.93C119.313 10.6644 119.612 10.5705 119.826 10.396C120.048 10.2215 120.159 9.98319 120.159 9.68117C120.159 9.54694 120.132 9.42277 120.078 9.30867C120.031 9.18787 119.947 9.07712 119.826 8.97645H119.836L117.873 7.46634C117.679 7.29855 117.548 7.11398 117.481 6.91263C117.413 6.71128 117.377 6.52 117.37 6.33879C117.37 6.13073 117.413 5.93273 117.501 5.74481C117.588 5.55688 117.709 5.3958 117.863 5.26157C118.018 5.12734 118.199 5.01995 118.407 4.93941C118.615 4.85888 118.84 4.81861 119.081 4.81861C119.303 4.81861 119.491 4.82867 119.645 4.84881C119.806 4.86223 119.944 4.88237 120.058 4.90921H120.45L120.481 6.13744H120.199C120.199 5.86897 120.115 5.66091 119.947 5.51326C119.779 5.35889 119.518 5.28171 119.162 5.28171C119.007 5.28171 118.863 5.3052 118.729 5.35218C118.595 5.39245 118.477 5.45285 118.377 5.53339C118.276 5.60722 118.195 5.69447 118.135 5.79515C118.081 5.89582 118.054 6.00656 118.054 6.12737C118.054 6.24147 118.078 6.35892 118.125 6.47973C118.172 6.60054 118.266 6.71799 118.407 6.83209L120.37 8.36234ZM126.581 3.51991C126.547 3.76824 126.47 3.96288 126.349 4.10382C126.235 4.24476 126.091 4.31524 125.916 4.31524C125.809 4.31524 125.698 4.29174 125.584 4.24476C125.477 4.19778 125.369 4.14744 125.262 4.09375C125.161 4.04006 125.064 3.98972 124.97 3.94274C124.876 3.89576 124.789 3.87227 124.708 3.87227C124.453 3.87227 124.272 4.00986 124.164 4.28503H124.064C124.097 4.01657 124.171 3.80851 124.285 3.66085C124.399 3.50649 124.537 3.4293 124.698 3.4293C124.812 3.4293 124.923 3.45279 125.03 3.49977C125.138 3.54004 125.242 3.59038 125.342 3.65079C125.443 3.70448 125.54 3.75482 125.634 3.8018C125.728 3.84207 125.819 3.8622 125.906 3.8622C126.188 3.8622 126.373 3.7481 126.46 3.51991H126.581ZM127.688 10.2147C127.775 10.4027 127.879 10.5369 128 10.6174C128.128 10.698 128.248 10.7382 128.363 10.7382H128.524V11H126.349V10.7382H126.51C126.584 10.7382 126.651 10.7114 126.712 10.6577C126.779 10.604 126.812 10.5268 126.812 10.4262C126.812 10.3792 126.802 10.3255 126.782 10.2651L126.269 9.01672H123.903L123.389 10.2349C123.362 10.2953 123.349 10.359 123.349 10.4262C123.349 10.5268 123.379 10.604 123.44 10.6577C123.5 10.7114 123.567 10.7382 123.641 10.7382H123.802V11H121.768V10.7382H121.93C122.044 10.7382 122.164 10.698 122.292 10.6174C122.419 10.5369 122.53 10.4027 122.624 10.2147L124.658 5.87569C124.725 5.73474 124.785 5.60051 124.839 5.47299C124.886 5.35889 124.926 5.24144 124.96 5.12063C125 4.99982 125.024 4.89915 125.03 4.81861H125.252L127.688 10.2147ZM126.077 8.55362L125.101 6.17771L124.094 8.55362H126.077ZM132.743 4.81861C133.213 4.81861 133.652 4.89579 134.062 5.05016C134.471 5.20452 134.83 5.42265 135.139 5.70454C135.448 5.97971 135.689 6.31194 135.864 6.70121C136.045 7.08378 136.135 7.50996 136.135 7.97978C136.135 8.44959 136.045 8.87913 135.864 9.2684C135.689 9.65097 135.448 9.98319 135.139 10.2651C134.83 10.5403 134.471 10.755 134.062 10.9094C133.652 11.0638 133.213 11.1409 132.743 11.1409C132.273 11.1409 131.83 11.0638 131.414 10.9094C131.004 10.755 130.645 10.5403 130.337 10.2651C130.028 9.98319 129.783 9.65097 129.602 9.2684C129.427 8.87913 129.34 8.44959 129.34 7.97978C129.34 7.50996 129.427 7.08378 129.602 6.70121C129.783 6.31194 130.028 5.97971 130.337 5.70454C130.645 5.42265 131.004 5.20452 131.414 5.05016C131.83 4.89579 132.273 4.81861 132.743 4.81861ZM132.743 10.6778C133.092 10.6778 133.417 10.6141 133.719 10.4866C134.021 10.3523 134.283 10.1678 134.505 9.93285C134.733 9.69795 134.911 9.41606 135.038 9.08719C135.166 8.75161 135.229 8.38247 135.229 7.97978C135.229 7.57708 135.166 7.2113 135.038 6.88243C134.911 6.54685 134.733 6.2616 134.505 6.0267C134.283 5.79179 134.021 5.61058 133.719 5.48306C133.417 5.34882 133.092 5.28171 132.743 5.28171C132.394 5.28171 132.065 5.34882 131.756 5.48306C131.454 5.61058 131.189 5.79179 130.961 6.0267C130.739 6.2616 130.565 6.54685 130.437 6.88243C130.31 7.2113 130.246 7.57708 130.246 7.97978C130.246 8.38247 130.31 8.75161 130.437 9.08719C130.565 9.41606 130.739 9.69795 130.961 9.93285C131.189 10.1678 131.454 10.3523 131.756 10.4866C132.065 10.6141 132.394 10.6778 132.743 10.6778Z" fill="#0F0808"/>
<path d="M86.1347 26.6193C86.1922 26.907 86.3245 27.1371 86.5316 27.3097C86.7387 27.4707 86.9746 27.5513 87.2392 27.5513H87.6534V28H83.7012V27.5685H84.1154C84.2535 27.5685 84.3743 27.5168 84.4778 27.4132C84.5814 27.2982 84.6332 27.1716 84.6332 27.0335V26.999L83.9256 19.0429L80.5947 26.4295C80.5027 26.6251 80.4221 26.8264 80.3531 27.0335C80.284 27.2176 80.215 27.419 80.146 27.6376C80.0884 27.8447 80.0482 28.046 80.0252 28.2416H79.6627L75.5207 19.2845L74.8304 26.999V27.0335C74.8304 27.1716 74.8822 27.2982 74.9857 27.4132C75.0893 27.5168 75.2101 27.5685 75.3481 27.5685H75.7451V28H72.1898V27.5513H72.604C72.8687 27.5513 73.1045 27.4707 73.3116 27.3097C73.5187 27.1371 73.6511 26.907 73.7086 26.6193L74.9857 15.6775H75.3481L79.9561 25.6529L84.4778 15.6775H84.8403L86.1347 26.6193ZM94.551 16.4369C94.9191 16.0342 95.2816 15.643 95.6382 15.2633C95.9949 14.8836 96.3573 14.5154 96.7255 14.1587C96.8636 14.2968 96.9959 14.4464 97.1225 14.6075C97.249 14.757 97.3583 14.9181 97.4504 15.0907C96.9787 15.3553 96.5127 15.6084 96.0524 15.8501C95.5922 16.0802 95.1262 16.3103 94.6545 16.5404L94.551 16.4369ZM98.9001 26.6538C99.0497 26.976 99.228 27.2061 99.4351 27.3442C99.6537 27.4822 99.8608 27.5513 100.056 27.5513H100.333V28H96.6047V27.5513H96.8809C97.0074 27.5513 97.1225 27.5053 97.226 27.4132C97.3411 27.3212 97.3986 27.1889 97.3986 27.0163C97.3986 26.9357 97.3813 26.8437 97.3468 26.7401L96.4667 24.6001H92.4109L91.5307 26.6884C91.4847 26.7919 91.4617 26.9012 91.4617 27.0163C91.4617 27.1889 91.5135 27.3212 91.617 27.4132C91.7206 27.5053 91.8356 27.5513 91.9622 27.5513H92.2383V28H88.7521V27.5513H89.0283C89.2239 27.5513 89.431 27.4822 89.6496 27.3442C89.8682 27.2061 90.058 26.976 90.2191 26.6538L93.7053 19.2155C93.8204 18.9738 93.9239 18.7437 94.016 18.5251C94.0965 18.3295 94.1655 18.1282 94.2231 17.9211C94.2921 17.714 94.3324 17.5414 94.3439 17.4033H94.7236L98.9001 26.6538ZM96.1387 23.8062L94.4647 19.7332L92.7388 23.8062H96.1387ZM112.225 27.4305V27.931H107.962V27.4822H108.307C108.434 27.4822 108.549 27.442 108.653 27.3614C108.756 27.2694 108.808 27.1601 108.808 27.0335C108.808 26.9645 108.791 26.9012 108.756 26.8437L106.547 23.6854L104.217 26.8437C104.171 26.9012 104.148 26.9702 104.148 27.0508C104.148 27.1773 104.2 27.2867 104.303 27.3787C104.419 27.4592 104.539 27.4995 104.666 27.4995H105.011V27.9482H101.059V27.4995H101.421C101.72 27.4995 101.997 27.4247 102.25 27.2751C102.514 27.1141 102.727 26.93 102.888 26.7229V26.7401L105.943 22.8225L103.164 18.8358C103.003 18.6402 102.79 18.4676 102.526 18.318C102.261 18.1569 101.974 18.0764 101.663 18.0764H101.3V17.6277H105.529V18.0764H105.184C105.057 18.0764 104.942 18.1224 104.838 18.2145C104.735 18.3065 104.683 18.4158 104.683 18.5424C104.683 18.6229 104.7 18.6862 104.735 18.7322L106.754 21.6144L108.687 18.7495C108.722 18.7035 108.739 18.6402 108.739 18.5596C108.739 18.4331 108.687 18.3238 108.584 18.2317C108.492 18.1397 108.382 18.0937 108.256 18.0937H107.893V17.6449H111.914V18.0937H111.552C111.241 18.0937 110.954 18.1742 110.689 18.3353C110.424 18.4849 110.212 18.6689 110.051 18.8876L107.41 22.5636L110.361 26.7919C110.522 26.9875 110.729 27.1658 110.982 27.3269C111.236 27.4765 111.517 27.5513 111.828 27.5513L112.225 27.4305ZM113.657 28V27.5513H114.02C114.284 27.5513 114.509 27.4765 114.693 27.3269C114.888 27.1773 114.998 26.999 115.021 26.7919V18.8703C114.998 18.6632 114.888 18.4849 114.693 18.3353C114.509 18.1857 114.284 18.1109 114.02 18.1109H113.657V17.6449H117.747V18.1109H117.385C117.132 18.1109 116.907 18.1857 116.712 18.3353C116.528 18.4849 116.424 18.6574 116.401 18.853V26.7919C116.413 26.999 116.511 27.1773 116.695 27.3269C116.89 27.4765 117.12 27.5513 117.385 27.5513H117.747V28H113.657ZM133.003 26.7747V26.7574C133.049 27.022 133.17 27.2234 133.365 27.3614C133.561 27.4995 133.779 27.5685 134.021 27.5685H134.418V28.0173H130.638V27.5858H131.035C131.162 27.5858 131.271 27.5455 131.363 27.465C131.455 27.3844 131.501 27.2809 131.501 27.1543V27.0853C131.352 25.9693 131.208 24.8992 131.07 23.8752C130.943 22.8397 130.811 21.7582 130.673 20.6307L127.722 26.464C127.722 26.4755 127.693 26.5388 127.635 26.6538C127.589 26.7689 127.532 26.9127 127.463 27.0853C127.394 27.2579 127.325 27.4477 127.256 27.6548C127.187 27.8619 127.135 28.0633 127.1 28.2589H126.738L122.855 20.786L122.147 27.068H122.164C122.153 27.0796 122.147 27.0911 122.147 27.1026C122.147 27.2291 122.193 27.3384 122.285 27.4305C122.389 27.5225 122.504 27.5685 122.63 27.5685H123.027V28H119.645V27.5513H120.024C120.289 27.5513 120.513 27.4822 120.697 27.3442C120.893 27.1946 121.008 26.9875 121.043 26.7229L122.354 17.4033H122.734L127.083 25.7737L131.277 17.4033H131.657L133.003 26.7747ZM145.548 26.6538C145.698 26.976 145.876 27.2061 146.083 27.3442C146.302 27.4822 146.509 27.5513 146.705 27.5513H146.981V28H143.253V27.5513H143.529C143.656 27.5513 143.771 27.5053 143.874 27.4132C143.989 27.3212 144.047 27.1889 144.047 27.0163C144.047 26.9357 144.03 26.8437 143.995 26.7401L143.115 24.6001H139.059L138.179 26.6884C138.133 26.7919 138.11 26.9012 138.11 27.0163C138.11 27.1889 138.162 27.3212 138.265 27.4132C138.369 27.5053 138.484 27.5513 138.611 27.5513H138.887V28H135.4V27.5513H135.677C135.872 27.5513 136.079 27.4822 136.298 27.3442C136.516 27.2061 136.706 26.976 136.867 26.6538L140.354 19.2155C140.469 18.9738 140.572 18.7437 140.664 18.5251C140.745 18.3295 140.814 18.1282 140.871 17.9211C140.94 17.714 140.981 17.5414 140.992 17.4033H141.372L145.548 26.6538ZM142.787 23.8062L141.113 19.7332L139.387 23.8062H142.787Z" fill="url(#paint1_linear_129_78)"/>
<defs>
<linearGradient id="paint0_linear_129_78" x1="67.2644" y1="0.2931" x2="-20.2199" y2="45.5986" gradientUnits="userSpaceOnUse">
<stop stop-color="#753E3E"/>
<stop offset="1" stop-color="#D71010"/>
</linearGradient>
<linearGradient id="paint1_linear_129_78" x1="70.2222" y1="26.9412" x2="111.176" y2="15.2385" gradientUnits="userSpaceOnUse">
<stop stop-color="#753E3E"/>
<stop offset="1" stop-color="#D70F0F"/>
</linearGradient>
</defs>
</svg>
